<svg version="1.1" id="Layer_1" xmlns="http://www.w3.org/2000/svg" x="0" y="0" xml:space="preserve" width="160.6" height="35"><style>.st2{enable-background:new}.st3{fill:#fff}</style><path fill="#c13a3a" d="M68.5 0h92.1v34.9H68.5z"/><path fill="#ef4041" d="M-.1 0h68.6v34.9H-.1z"/><g class="st2"><path class="st3" d="M23.6 18.2c0 1-.3 1.9-1 2.6-.7.7-1.5 1-2.6 1-1 0-1.8-.3-2.5-1s-1-1.5-1-2.6v-1.5c0-1 .3-1.9 1-2.6.7-.7 1.5-1 2.5-1s1.9.3 2.5 1 1 1.6 1 2.6l.1 1.5zm-1.5-1.5c0-.7-.2-1.3-.6-1.8-.4-.5-.9-.7-1.5-.7s-1.1.2-1.5.7c-.4.5-.5 1-.5 1.8v1.5c0 .7.2 1.3.5 1.8.4.5.9.7 1.5.7.7 0 1.2-.2 1.5-.7.4-.5.6-1 .6-1.8v-1.5zm6.4 1.8v3.2h-1.4v-8.5h3.3c.9 0 1.7.2 2.2.7.5.5.8 1.1.8 1.9s-.3 1.4-.8 1.9-1.3.7-2.2.7l-1.9.1zm0-1.1h1.8c.5 0 .9-.1 1.2-.4s.4-.6.4-1.1-.1-.8-.4-1.1-.7-.4-1.2-.4h-1.8v3zm13 .5h-3.3v2.7H42v1.1h-5.4v-8.5H42v1.1h-3.9v2.4h3.3l.1 1.2zm10.4 3.8h-1.4l-3.8-6.1v6.1h-1.4v-8.5h1.4l3.8 6.1v-6.1h1.4v8.5z"/></g><g class="st2"><path class="st3" d="M85.1 21.9c-.6-.2-1.2-.4-1.6-.7l.8-1.9c.4.3.8.5 1.3.7.5.2 1 .3 1.5.3.9 0 1.4-.3 1.4-.8 0-.3-.1-.5-.4-.6-.3-.1-.7-.3-1.3-.4-.6-.2-1.1-.4-1.6-.5-.4-.2-.8-.4-1.1-.8-.3-.4-.5-.9-.5-1.5s.1-1.1.4-1.5c.3-.5.7-.8 1.3-1.1.6-.3 1.2-.4 2-.4.6 0 1.1.1 1.6.2s1 .3 1.4.6l-.7 1.9c-.8-.5-1.6-.7-2.3-.7-.5 0-.8.1-1 .2-.2.2-.3.4-.3.6 0 .2.1.4.4.6.3.1.7.3 1.2.4.6.1 1.2.3 1.6.5.4.2.8.4 1.1.8.3.4.5.9.5 1.5s-.1 1.1-.4 1.5c-.3.4-.7.8-1.3 1.1-.6.3-1.2.4-2 .4-.7-.1-1.3-.2-2-.4zm10.5-.3c-.7-.4-1.3-1-1.7-1.7-.4-.7-.6-1.6-.6-2.5 0-.9.2-1.7.6-2.5.4-.7 1-1.3 1.7-1.7s1.5-.6 2.4-.6 1.7.2 2.4.6c.7.4 1.3 1 1.7 1.7.4.7.6 1.6.6 2.5 0 .9-.2 1.7-.6 2.5-.4.7-1 1.3-1.7 1.7-.7.4-1.5.6-2.4.6s-1.7-.2-2.4-.6zm3.6-1.9c.3-.2.6-.5.8-.9.2-.4.3-.9.3-1.4s-.1-1-.3-1.4c-.2-.4-.5-.7-.8-.9-.3-.2-.7-.3-1.2-.3s-.8.1-1.2.3c-.3.2-.6.5-.8.9-.2.4-.3.9-.3 1.4s.1 1 .3 1.4c.2.4.5.7.8.9s.7.3 1.2.3.8-.1 1.2-.3zm7.7 1.4c-.7-.7-1-1.8-1-3.2v-5.1h2.4v5c0 1.5.5 2.2 1.6 2.2s1.6-.7 1.6-2.2v-5h2.3v5.1c0 1.4-.3 2.4-1 3.2-.7.7-1.7 1.1-2.9 1.1s-2.3-.4-3-1.1zm14.1-1.5h-1.3V22h-2.4v-9.2h3.8c.8 0 1.4.1 2 .4.6.3 1 .7 1.3 1.2.3.5.5 1.1.5 1.8s-.1 1.3-.4 1.8-.7.9-1.2 1.2L125 22h-2.5l-1.5-2.4zm1.2-4.4c-.2-.2-.6-.4-1.1-.4h-1.3v2.7h1.3c.5 0 .9-.1 1.1-.4.2-.2.4-.6.4-1s-.2-.7-.4-.9zm7.8 6.4c-.7-.4-1.3-1-1.7-1.7-.4-.7-.6-1.6-.6-2.5 0-.9.2-1.8.6-2.5.4-.7 1-1.3 1.7-1.7s1.5-.6 2.4-.6c.8 0 1.5.1 2.1.4.6.3 1.1.7 1.5 1.3l-1.5 1.5c-.5-.7-1.2-1.1-2-1.1-.5 0-.9.1-1.2.3-.4.2-.6.5-.8.9-.2.4-.3.9-.3 1.4 0 .5.1 1 .3 1.4.2.4.5.7.8.9.4.2.8.3 1.2.3.8 0 1.4-.4 2-1.1l1.5 1.5c-.4.6-.9 1-1.5 1.3s-1.3.4-2.1.4c-1 .2-1.7 0-2.4-.4zm15.7-1.6v2H139v-9.2h6.6v2h-4.2v1.6h3.7v2h-3.7V20h4.3z"/></g></svg>